<svg xmlns="http://www.w3.org/2000/svg" version="1.1" xmlns:xlink="http://www.w3.org/1999/xlink" xmlns:svgjs="http://svgjs.dev/svgjs" viewBox="0 0 10.460817617408917 3.097382286126857"><g transform="matrix(1,0,0,1,2.471401450225358,0.537188643063429)"><g><path d=" M 0.8505 0.8099999999999997 L 0.8505 1.0649999999999997 L 0.0915 1.0649999999999997 L 0.0915 -2.220446049250313e-16 L 0.837 -2.220446049250313e-16 L 0.837 0.25499999999999967 L 0.384 0.25499999999999967 L 0.384 0.4049999999999997 L 0.771 0.4049999999999997 L 0.771 0.6419999999999997 L 0.384 0.6419999999999997 L 0.384 0.8099999999999997 L 0.8505 0.8099999999999997 M 1.1609772949218748 1.0649999999999997 L 0.8954772949218749 0.2759999999999997 L 1.187977294921875 0.2759999999999997 L 1.328977294921875 0.8114999999999997 L 1.471477294921875 0.2759999999999997 L 1.736977294921875 0.2759999999999997 L 1.471477294921875 1.0649999999999997 L 1.1609772949218748 1.0649999999999997 M 2.17045166015625 1.0799999999999996 Q 2.06695166015625 1.0799999999999996 1.98595166015625 1.0477499999999997 Q 1.90495166015625 1.0154999999999996 1.8502016601562499 0.9599999999999997 Q 1.7954516601562498 0.9044999999999997 1.7669516601562498 0.8324999999999997 Q 1.7384516601562499 0.7604999999999997 1.7384516601562499 0.6809999999999997 Q 1.7384516601562499 0.5669999999999997 1.78795166015625 0.47174999999999967 Q 1.8374516601562498 0.3764999999999997 1.93345166015625 0.31874999999999976 Q 2.02945166015625 0.2609999999999997 2.17045166015625 0.2609999999999997 Q 2.31145166015625 0.2609999999999997 2.4074516601562497 0.3179999999999997 Q 2.5034516601562498 0.37499999999999967 2.55295166015625 0.46799999999999975 Q 2.60245166015625 0.5609999999999997 2.60245166015625 0.6704999999999997 Q 2.60245166015625 0.6929999999999997 2.60020166015625 0.7162499999999997 Q 2.59795166015625 0.7394999999999997 2.5949516601562497 0.7574999999999997 L 2.04145166015625 0.7574999999999997 Q 2.04445166015625 0.7994999999999997 2.06470166015625 0.8257499999999998 Q 2.08495166015625 0.8519999999999998 2.1157016601562497 0.8639999999999997 Q 2.14645166015625 0.8759999999999997 2.17945166015625 0.8759999999999997 Q 2.22595166015625 0.8759999999999997 2.2672016601562497 0.8549999999999998 Q 2.30845166015625 0.8339999999999997 2.32195166015625 0.7964999999999998 L 2.56345166015625 0.8654999999999997 Q 2.53195166015625 0.9284999999999997 2.47570166015625 0.9764999999999997 Q 2.41945166015625 1.0244999999999997 2.34295166015625 1.0522499999999997 Q 2.2664516601562497 1.0799999999999996 2.17045166015625 1.0799999999999996 M 2.03545166015625 0.5864999999999997 L 2.29645166015625 0.5864999999999997 Q 2.2919516601562497 0.5474999999999998 2.27470166015625 0.5204999999999997 Q 2.2574516601562498 0.4934999999999997 2.22970166015625 0.4784999999999997 Q 2.20195166015625 0.4634999999999997 2.16595166015625 0.4634999999999997 Q 2.12995166015625 0.4634999999999997 2.1022016601562497 0.4784999999999997 Q 2.07445166015625 0.4934999999999997 2.0572016601562497 0.5204999999999997 Q 2.03995166015625 0.5474999999999998 2.03545166015625 0.5864999999999997 M 3.4874648437499998 1.0649999999999997 L 3.2024648437499996 1.0649999999999997 L 3.2024648437499996 0.6209999999999998 Q 3.2024648437499996 0.5624999999999997 3.17621484375 0.5362499999999997 Q 3.14996484375 0.5099999999999997 3.11546484375 0.5099999999999997 Q 3.09146484375 0.5099999999999997 3.0644648437499997 0.5242499999999997 Q 3.03746484375 0.5384999999999998 3.0149648437499996 0.5639999999999997 Q 2.9924648437499997 0.5894999999999997 2.97896484375 0.6224999999999997 L 2.97896484375 1.0649999999999997 L 2.69396484375 1.0649999999999997 L 2.69396484375 0.2759999999999997 L 2.95046484375 0.2759999999999997 L 2.95046484375 0.3929999999999997 Q 2.97896484375 0.3494999999999997 3.02246484375 0.3202499999999997 Q 3.06596484375 0.2909999999999997 3.1229648437499997 0.2759999999999997 Q 3.1799648437499997 0.2609999999999997 3.24746484375 0.2609999999999997 Q 3.32846484375 0.2609999999999997 3.37646484375 0.28949999999999976 Q 3.42446484375 0.3179999999999997 3.44846484375 0.36299999999999966 Q 3.47246484375 0.4079999999999997 3.47996484375 0.45674999999999977 Q 3.4874648437499998 0.5054999999999997 3.4874648437499998 0.5459999999999997 L 3.4874648437499998 1.0649999999999997 M 4.1774223632812495 1.0214999999999996 Q 4.13842236328125 1.0379999999999998 4.09417236328125 1.0522499999999997 Q 4.04992236328125 1.0664999999999998 4.00417236328125 1.0739999999999996 Q 3.9584223632812496 1.0814999999999997 3.9149223632812498 1.0814999999999997 Q 3.8504223632812495 1.0814999999999997 3.7964223632812497 1.0597499999999997 Q 3.74242236328125 1.0379999999999998 3.7101723632812496 0.9877499999999997 Q 3.6779223632812497 0.9374999999999998 3.6779223632812497 0.8519999999999998 L 3.6779223632812497 0.4904999999999997 L 3.58042236328125 0.4904999999999997 L 3.58042236328125 0.2759999999999997 L 3.6779223632812497 0.2759999999999997 L 3.6779223632812497 0.028499999999999748 L 3.96292236328125 0.028499999999999748 L 3.96292236328125 0.2759999999999997 L 4.11742236328125 0.2759999999999997 L 4.11742236328125 0.4904999999999997 L 3.96292236328125 0.4904999999999997 L 3.96292236328125 0.7514999999999997 Q 3.96292236328125 0.7904999999999998 3.97942236328125 0.8062499999999997 Q 3.9959223632812497 0.8219999999999997 4.02442236328125 0.8219999999999997 Q 4.04542236328125 0.8219999999999997 4.07242236328125 0.8144999999999998 Q 4.09942236328125 0.8069999999999997 4.12642236328125 0.7964999999999998 L 4.1774223632812495 1.0214999999999996 M 5.0353828125 0.8099999999999997 L 5.0353828125 1.0649999999999997 L 4.2763828125 1.0649999999999997 L 4.2763828125 -2.220446049250313e-16 L 5.0218828124999995 -2.220446049250313e-16 L 5.0218828124999995 0.25499999999999967 L 4.5688828125 0.25499999999999967 L 4.5688828125 0.4049999999999997 L 4.9558828125 0.4049999999999997 L 4.9558828125 0.6419999999999997 L 4.5688828125 0.6419999999999997 L 4.5688828125 0.8099999999999997 L 5.0353828125 0.8099999999999997 M 5.107360107421875 0.8264999999999997 Q 5.107360107421875 0.7469999999999997 5.150860107421875 0.6862499999999997 Q 5.194360107421875 0.6254999999999997 5.271610107421875 0.5909999999999997 Q 5.348860107421874 0.5564999999999997 5.447860107421874 0.5564999999999997 Q 5.494360107421874 0.5564999999999997 5.535610107421874 0.5639999999999997 Q 5.576860107421875 0.5714999999999997 5.606860107421875 0.5864999999999997 L 5.606860107421875 0.5624999999999997 Q 5.606860107421875 0.5069999999999997 5.574610107421875 0.47999999999999976 Q 5.5423601074218745 0.45299999999999974 5.470360107421874 0.45299999999999974 Q 5.404360107421875 0.45299999999999974 5.346610107421875 0.4747499999999997 Q 5.288860107421875 0.4964999999999997 5.225860107421875 0.5384999999999998 L 5.143360107421874 0.3614999999999997 Q 5.222860107421875 0.31049999999999967 5.310610107421875 0.2857499999999997 Q 5.398360107421874 0.2609999999999997 5.498860107421875 0.2609999999999997 Q 5.686360107421875 0.2609999999999997 5.789110107421875 0.34574999999999967 Q 5.891860107421874 0.43049999999999966 5.891860107421874 0.5969999999999998 L 5.891860107421874 0.7499999999999998 Q 5.891860107421874 0.7904999999999998 5.903860107421875 0.8062499999999997 Q 5.915860107421874 0.8219999999999997 5.945860107421875 0.8249999999999997 L 5.945860107421875 1.0649999999999997 Q 5.911360107421874 1.0724999999999998 5.880610107421875 1.0762499999999997 Q 5.849860107421875 1.0799999999999996 5.8258601074218745 1.0799999999999996 Q 5.749360107421874 1.0799999999999996 5.709610107421875 1.0522499999999997 Q 5.669860107421875 1.0244999999999997 5.657860107421874 0.9704999999999997 L 5.651860107421875 0.9419999999999997 Q 5.599360107421875 1.0094999999999996 5.530360107421875 1.0447499999999996 Q 5.461360107421875 1.0799999999999996 5.383360107421875 1.0799999999999996 Q 5.305360107421874 1.0799999999999996 5.242360107421875 1.0469999999999997 Q 5.179360107421875 1.0139999999999998 5.143360107421874 0.9562499999999997 Q 5.107360107421875 0.8984999999999997 5.107360107421875 0.8264999999999997 M 5.569360107421875 0.8459999999999998 Q 5.585860107421874 0.8339999999999997 5.596360107421875 0.8197499999999998 Q 5.606860107421875 0.8054999999999997 5.606860107421875 0.7904999999999998 L 5.606860107421875 0.7319999999999998 Q 5.582860107421874 0.7229999999999996 5.552110107421875 0.7169999999999996 Q 5.5213601074218746 0.7109999999999997 5.4973601074218745 0.7109999999999997 Q 5.446360107421874 0.7109999999999997 5.411110107421875 0.7364999999999997 Q 5.375860107421874 0.7619999999999998 5.375860107421874 0.8009999999999997 Q 5.375860107421874 0.8219999999999997 5.387860107421875 0.8392499999999997 Q 5.399860107421874 0.8564999999999997 5.420860107421874 0.8662499999999997 Q 5.441860107421874 0.8759999999999997 5.468860107421874 0.8759999999999997 Q 5.494360107421874 0.8759999999999997 5.522110107421875 0.8677499999999997 Q 5.549860107421875 0.8594999999999997 5.569360107421875 0.8459999999999998 M 6.364358642578124 1.0799999999999996 Q 6.260858642578125 1.0799999999999996 6.1611086425781245 1.0462499999999997 Q 6.061358642578124 1.0124999999999997 5.992358642578124 0.9479999999999997 L 6.0898586425781245 0.7724999999999997 Q 6.163358642578125 0.8204999999999998 6.2316086425781245 0.8474999999999997 Q 6.2998586425781244 0.8744999999999997 6.355358642578125 0.8744999999999997 Q 6.386858642578124 0.8744999999999997 6.401858642578125 0.8662499999999997 Q 6.416858642578124 0.8579999999999997 6.416858642578124 0.8384999999999997 Q 6.416858642578124 0.8249999999999997 6.406358642578125 0.8159999999999997 Q 6.3958586425781245 0.8069999999999997 6.3726086425781245 0.7979999999999997 Q 6.3493586425781245 0.7889999999999997 6.313358642578125 0.7784999999999997 Q 6.220358642578125 0.7454999999999997 6.158108642578124 0.7169999999999996 Q 6.095858642578125 0.6884999999999997 6.065108642578124 0.6472499999999997 Q 6.034358642578125 0.6059999999999997 6.034358642578125 0.5369999999999997 Q 6.034358642578125 0.45599999999999974 6.074858642578125 0.3937499999999997 Q 6.115358642578125 0.3314999999999997 6.191108642578125 0.29549999999999976 Q 6.266858642578125 0.25949999999999973 6.373358642578125 0.25949999999999973 Q 6.452858642578125 0.25949999999999973 6.533108642578124 0.28424999999999967 Q 6.613358642578125 0.3089999999999997 6.688358642578125 0.3734999999999997 L 6.580358642578124 0.5474999999999998 Q 6.505358642578124 0.5009999999999997 6.453608642578125 0.4814999999999997 Q 6.401858642578125 0.46199999999999974 6.361358642578125 0.46199999999999974 Q 6.341858642578124 0.46199999999999974 6.327608642578125 0.4664999999999997 Q 6.313358642578125 0.47099999999999975 6.305858642578125 0.47999999999999976 Q 6.298358642578124 0.48899999999999966 6.298358642578124 0.5039999999999997 Q 6.298358642578124 0.5189999999999997 6.308858642578125 0.5287499999999997 Q 6.319358642578124 0.5384999999999998 6.341858642578124 0.5467499999999997 Q 6.364358642578124 0.5549999999999997 6.398858642578125 0.5654999999999997 Q 6.500858642578125 0.5954999999999997 6.565358642578125 0.6262499999999998 Q 6.6298586425781245 0.6569999999999997 6.660608642578125 0.7004999999999997 Q 6.691358642578125 0.7439999999999998 6.691358642578125 0.8144999999999998 Q 6.691358642578125 0.9389999999999997 6.603608642578124 1.0094999999999996 Q 6.515858642578125 1.0799999999999996 6.364358642578124 1.0799999999999996 M 6.766280273437499 1.1444999999999996 Q 6.8007802734375 1.1564999999999996 6.830030273437499 1.1632499999999997 Q 6.859280273437499 1.1699999999999997 6.883280273437499 1.1699999999999997 Q 6.9147802734375 1.1699999999999997 6.9357802734375 1.1587499999999997 Q 6.9567802734374995 1.1474999999999997 6.9687802734375 1.1234999999999997 Q 6.9807802734374995 1.0994999999999997 6.9837802734375 1.0649999999999997 L 6.697280273437499 0.2759999999999997 L 6.9897802734375 0.2759999999999997 L 7.139780273437499 0.7724999999999997 L 7.2612802734374995 0.2759999999999997 L 7.5267802734375 0.2759999999999997 L 7.259780273437499 1.1594999999999998 Q 7.2372802734374995 1.2359999999999998 7.186280273437499 1.2937499999999997 Q 7.135280273437499 1.3514999999999997 7.064780273437499 1.3837499999999998 Q 6.994280273437499 1.4159999999999997 6.9132802734375 1.4159999999999997 Q 6.8757802734375 1.4159999999999997 6.8390302734374995 1.4092499999999997 Q 6.8022802734375 1.4024999999999999 6.766280273437499 1.3874999999999997 L 6.766280273437499 1.1444999999999996" fill="#382d5e" fill-rule="nonzero"></path></g><g><path d=" M 0.06349199999999999 2.0230049999999995 L 0.06349199999999999 1.4138249999999997 L 0.32175 1.4138249999999997 Q 0.36379199999999995 1.4138249999999997 0.39897 1.4309849999999995 Q 0.434148 1.4481449999999996 0.460317 1.4773169999999995 Q 0.486486 1.5064889999999995 0.501072 1.5425249999999995 Q 0.515658 1.5785609999999997 0.515658 1.6163129999999994 Q 0.515658 1.6677929999999996 0.49163399999999996 1.7141249999999995 Q 0.46760999999999997 1.7604569999999995 0.42556799999999995 1.7896289999999995 Q 0.383526 1.8188009999999994 0.32604 1.8188009999999994 L 0.18189599999999997 1.8188009999999994 L 0.18189599999999997 2.0230049999999995 L 0.06349199999999999 2.0230049999999995 M 0.18189599999999997 1.7149829999999995 L 0.31917599999999996 1.7149829999999995 Q 0.340626 1.7149829999999995 0.357786 1.7029709999999996 Q 0.37494599999999995 1.6909589999999994 0.385242 1.6682219999999996 Q 0.39553799999999995 1.6454849999999994 0.39553799999999995 1.6163129999999994 Q 0.39553799999999995 1.5845669999999996 0.383955 1.5622589999999996 Q 0.372372 1.5399509999999994 0.353925 1.5287969999999995 Q 0.335478 1.5176429999999996 0.314028 1.5176429999999996 L 0.18189599999999997 1.5176429999999996 L 0.18189599999999997 1.7149829999999995 M 0.5851438505859374 1.3966649999999996 L 0.7001158505859375 1.3966649999999996 L 0.7001158505859375 1.8788609999999994 Q 0.7001158505859375 1.9097489999999995 0.7104118505859375 1.9204739999999996 Q 0.7207078505859374 1.9311989999999994 0.7387258505859374 1.9311989999999994 Q 0.7524538505859375 1.9311989999999994 0.7670398505859375 1.9277669999999996 Q 0.7816258505859375 1.9243349999999995 0.7927798505859374 1.9191869999999995 L 0.8082238505859374 2.0067029999999995 Q 0.7850578505859375 2.0178569999999993 0.7541698505859374 2.0238629999999995 Q 0.7232818505859374 2.0298689999999997 0.6983998505859375 2.0298689999999997 Q 0.6443458505859374 2.0298689999999997 0.6147448505859374 2.0011259999999993 Q 0.5851438505859374 1.9723829999999996 0.5851438505859374 1.9191869999999995 L 0.5851438505859374 1.3966649999999996 M 0.8262560947265624 1.8900149999999996 Q 0.8262560947265624 1.8462569999999996 0.8507090947265624 1.8132239999999995 Q 0.8751620947265624 1.7801909999999994 0.9189200947265623 1.7621729999999995 Q 0.9626780947265624 1.7441549999999995 1.0193060947265624 1.7441549999999995 Q 1.0476200947265624 1.7441549999999995 1.0767920947265623 1.7484449999999996 Q 1.1059640947265623 1.7527349999999995 1.1274140947265623 1.7621729999999995 L 1.1274140947265623 1.7381489999999995 Q 1.1274140947265623 1.6952489999999996 1.1021030947265624 1.6720829999999995 Q 1.0767920947265623 1.6489169999999995 1.0270280947265624 1.6489169999999995 Q 0.9901340947265624 1.6489169999999995 0.9566720947265623 1.6617869999999995 Q 0.9232100947265623 1.6746569999999994 0.8863160947265624 1.6995389999999995 L 0.8494220947265624 1.6240349999999995 Q 0.8940380947265624 1.5948629999999995 0.9407990947265624 1.5802769999999995 Q 0.9875600947265624 1.5656909999999995 1.0390400947265623 1.5656909999999995 Q 1.1351360947265623 1.5656909999999995 1.1887610947265623 1.6137389999999996 Q 1.2423860947265624 1.6617869999999995 1.2423860947265624 1.7510189999999994 L 1.2423860947265624 1.8943049999999995 Q 1.2423860947265624 1.9123229999999996 1.2488210947265623 1.9200449999999996 Q 1.2552560947265623 1.9277669999999996 1.2698420947265623 1.9294829999999994 L 1.2698420947265623 2.0230049999999995 Q 1.2543980947265623 2.0255789999999996 1.2419570947265623 2.0272949999999996 Q 1.2295160947265624 2.0290109999999997 1.2209360947265624 2.0290109999999997 Q 1.1866160947265625 2.0290109999999997 1.1690270947265624 2.0135669999999997 Q 1.1514380947265623 1.9981229999999994 1.1471480947265624 1.9758149999999994 L 1.1445740947265624 1.9526489999999994 Q 1.1154020947265624 1.9904009999999994 1.0716440947265624 2.0109929999999996 Q 1.0278860947265624 2.0315849999999993 0.9824120947265624 2.0315849999999993 Q 0.9377960947265624 2.0315849999999993 0.9021890947265624 2.0131379999999996 Q 0.8665820947265623 1.9946909999999995 0.8464190947265624 1.9625159999999995 Q 0.8262560947265624 1.9303409999999994 0.8262560947265624 1.8900149999999996 M 1.1059640947265623 1.9131809999999996 Q 1.1154020947265624 1.9028849999999995 1.1214080947265623 1.8925889999999996 Q 1.1274140947265623 1.8822929999999995 1.1274140947265623 1.8737129999999995 L 1.1274140947265623 1.8282389999999995 Q 1.1068220947265623 1.8196589999999995 1.0827980947265623 1.8149399999999996 Q 1.0587740947265623 1.8102209999999994 1.0373240947265623 1.8102209999999994 Q 0.9927080947265624 1.8102209999999994 0.9639650947265623 1.8295259999999995 Q 0.9352220947265624 1.8488309999999994 0.9352220947265624 1.8805769999999995 Q 0.9352220947265624 1.8977369999999996 0.9446600947265624 1.9131809999999996 Q 0.9540980947265624 1.9286249999999996 0.9721160947265624 1.9380629999999994 Q 0.9901340947265624 1.9475009999999995 1.0150160947265623 1.9475009999999995 Q 1.0407560947265624 1.9475009999999995 1.0656380947265625 1.9376339999999994 Q 1.0905200947265623 1.9277669999999996 1.1059640947265623 1.9131809999999996 M 1.7666023095703123 2.0230049999999995 L 1.6516303095703124 2.0230049999999995 L 1.6516303095703124 1.7707529999999996 Q 1.6516303095703124 1.7166989999999995 1.6327543095703123 1.6918169999999995 Q 1.6138783095703122 1.6669349999999996 1.5804163095703123 1.6669349999999996 Q 1.5572503095703123 1.6669349999999996 1.5336553095703123 1.6789469999999995 Q 1.5100603095703122 1.6909589999999994 1.4911843095703123 1.7119799999999996 Q 1.4723083095703124 1.7330009999999996 1.4637283095703124 1.7604569999999995 L 1.4637283095703124 2.0230049999999995 L 1.3487563095703123 2.0230049999999995 L 1.3487563095703123 1.5734129999999995 L 1.4525743095703123 1.5734129999999995 L 1.4525743095703123 1.6566389999999995 Q 1.4697343095703124 1.6274669999999996 1.4963323095703123 1.6073039999999996 Q 1.5229303095703124 1.5871409999999995 1.5576793095703123 1.5764159999999996 Q 1.5924283095703125 1.5656909999999995 1.6310383095703123 1.5656909999999995 Q 1.6730803095703124 1.5656909999999995 1.7001073095703123 1.5807059999999995 Q 1.7271343095703124 1.5957209999999995 1.7412913095703124 1.6210319999999996 Q 1.7554483095703124 1.6463429999999994 1.7610253095703123 1.6780889999999995 Q 1.7666023095703123 1.7098349999999995 1.7666023095703123 1.7424389999999996 L 1.7666023095703123 2.0230049999999995 M 2.283979661132812 2.0230049999999995 L 2.169007661132812 2.0230049999999995 L 2.169007661132812 1.7707529999999996 Q 2.169007661132812 1.7166989999999995 2.1501316611328125 1.6918169999999995 Q 2.1312556611328124 1.6669349999999996 2.0977936611328123 1.6669349999999996 Q 2.074627661132812 1.6669349999999996 2.0510326611328122 1.6789469999999995 Q 2.0274376611328124 1.6909589999999994 2.0085616611328123 1.7119799999999996 Q 1.9896856611328122 1.7330009999999996 1.9811056611328124 1.7604569999999995 L 1.9811056611328124 2.0230049999999995 L 1.8661336611328123 2.0230049999999995 L 1.8661336611328123 1.5734129999999995 L 1.9699516611328123 1.5734129999999995 L 1.9699516611328123 1.6566389999999995 Q 1.9871116611328123 1.6274669999999996 2.0137096611328125 1.6073039999999996 Q 2.0403076611328124 1.5871409999999995 2.0750566611328125 1.5764159999999996 Q 2.109805661132812 1.5656909999999995 2.1484156611328125 1.5656909999999995 Q 2.1904576611328124 1.5656909999999995 2.2174846611328123 1.5807059999999995 Q 2.244511661132812 1.5957209999999995 2.258668661132812 1.6210319999999996 Q 2.272825661132812 1.6463429999999994 2.2784026611328123 1.6780889999999995 Q 2.283979661132812 1.7098349999999995 2.283979661132812 1.7424389999999996 L 2.283979661132812 2.0230049999999995 M 2.592005012695312 2.0315849999999993 Q 2.537951012695312 2.0315849999999993 2.494193012695312 2.0131379999999996 Q 2.450435012695312 1.9946909999999995 2.419547012695312 1.9625159999999995 Q 2.388659012695312 1.9303409999999994 2.371928012695312 1.8887279999999995 Q 2.355197012695312 1.8471149999999996 2.355197012695312 1.8007829999999996 Q 2.355197012695312 1.7364329999999994 2.383940012695312 1.6832369999999997 Q 2.4126830126953123 1.6300409999999994 2.466308012695312 1.5978659999999996 Q 2.519933012695312 1.5656909999999995 2.592863012695312 1.5656909999999995 Q 2.6666510126953122 1.5656909999999995 2.718989012695312 1.5978659999999996 Q 2.7713270126953122 1.6300409999999994 2.799212012695312 1.6828079999999996 Q 2.827097012695312 1.7355749999999994 2.827097012695312 1.7964929999999995 Q 2.827097012695312 1.8067889999999995 2.826239012695312 1.8175139999999996 Q 2.825381012695312 1.8282389999999995 2.824523012695312 1.8351029999999995 L 2.477033012695312 1.8351029999999995 Q 2.480465012695312 1.8694229999999994 2.497196012695312 1.8951629999999995 Q 2.513927012695312 1.9209029999999996 2.540096012695312 1.9342019999999995 Q 2.566265012695312 1.9475009999999995 2.596295012695312 1.9475009999999995 Q 2.630615012695312 1.9475009999999995 2.661074012695312 1.9307699999999994 Q 2.691533012695312 1.9140389999999996 2.702687012695312 1.8865829999999995 L 2.801357012695312 1.9140389999999996 Q 2.785055012695312 1.9483589999999995 2.754596012695312 1.9749569999999994 Q 2.724137012695312 2.0015549999999993 2.682953012695312 2.0165699999999993 Q 2.641769012695312 2.0315849999999993 2.592005012695312 2.0315849999999993 M 2.474459012695312 1.7621729999999995 L 2.709551012695312 1.7621729999999995 Q 2.706119012695312 1.7278529999999996 2.690246012695312 1.7025419999999996 Q 2.674373012695312 1.6772309999999995 2.648633012695312 1.6630739999999995 Q 2.622893012695312 1.6489169999999995 2.5911470126953122 1.6489169999999995 Q 2.560259012695312 1.6489169999999995 2.534948012695312 1.6630739999999995 Q 2.509637012695312 1.6772309999999995 2.493764012695312 1.7025419999999996 Q 2.477891012695312 1.7278529999999996 2.474459012695312 1.7621729999999995 M 3.164290174804687 1.6729409999999996 Q 3.1119521748046868 1.6729409999999996 3.070768174804687 1.6931039999999995 Q 3.029584174804687 1.7132669999999997 3.011566174804687 1.7510189999999994 L 3.011566174804687 2.0230049999999995 L 2.8965941748046866 2.0230049999999995 L 2.8965941748046866 1.5734129999999995 L 3.0021281748046866 1.5734129999999995 L 3.0021281748046866 1.6695089999999995 Q 3.026152174804687 1.6231769999999996 3.0630461748046867 1.5965789999999995 Q 3.099940174804687 1.5699809999999994 3.1411241748046868 1.5674069999999996 Q 3.150562174804687 1.5674069999999996 3.1557101748046867 1.5674069999999996 Q 3.160858174804687 1.5674069999999996 3.164290174804687 1.5682649999999996 L 3.164290174804687 1.6729409999999996" fill="#cccccc" fill-rule="nonzero"></path></g><g clip-path="url(#SvgjsClipPath1008)"><g clip-path="url(#SvgjsClipPath1007a015b66d-a5ff-452f-b226-47d03b3930c4)"><path d=" M -1.7386391434464339 2.064233281845863 L -0.3306773622005723 2.064233281845863 C -0.3306773622005723 1.276256330654302 -0.88527825690184 1.011597975597063 -0.88527825690184 1.011597975597063 L -0.88527825690184 1.011597975597063 C -0.88527825690184 1.011597975597063 -0.3307672215860431 0.7469283881166381 -0.3307672215860431 -0.04122828184586229 L -1.7388188622173744 -0.04122828184586229 C -1.7388188622173744 -0.04122828184586229 -1.7389424188723972 0.7301246830336402 -1.1448595566799908 1.011597975597063 L -1.1447696972945198 1.011597975597063 C -1.7388637919101106 1.2929477115054642 -1.7386391434464339 2.064233281845863 -1.7386391434464339 2.064233281845863 Z" fill="#ffffff" transform="matrix(1,0,0,1,0,0)" fill-rule="nonzero"></path></g><g clip-path="url(#SvgjsClipPath1007a015b66d-a5ff-452f-b226-47d03b3930c4)"><path d=" M -0.3306773622005723 2.103546762989244 L -1.7386391434464339 2.103546762989244 C -1.7603513795446846 2.103546762989244 -1.7779526245898147 2.085945517944114 -1.7779526245898147 2.064233281845863 C -1.773475006810301 1.9170040521055083 -1.7478538506743309 1.771183244969914 -1.7018754223657813 1.6312458329558508 C -1.6105445894581145 1.3506486694007636 -1.4480226584113773 1.1379739688382573 -1.2293610762918927 1.0116092080202472 C -1.4480451232577463 0.8851770526631337 -1.6106344488435855 0.6723900278687877 -1.7019989790208028 0.3917928643137019 C -1.7479913480303264 0.25183766985859773 -1.7736312295926844 0.10599902219356971 -1.7781323433607539 -0.0412507466922283 C -1.7781323433607554 -0.06296298279048175 -1.760531098315625 -0.08056422783561205 -1.7388188622173744 -0.08056422783561205 L -0.33076722158604044 -0.08056422783561205 C -0.30905498548779264 -0.08056422783561205 -0.29145374044265937 -0.06296298279048175 -0.29145374044265937 -0.04125074669223108 C -0.29145374044265937 0.37771863806437167 -0.44724745000228694 0.6507676132399287 -0.5779479261692526 0.806044631333099 C -0.6440650074935101 0.8853185494252868 -0.7213546975868659 0.9545603043921627 -0.8073926345452052 1.01159797559706 C -0.7213325481364119 1.0686240838998007 -0.6440264417476735 1.137866986690359 -0.5779029964765163 1.2171513198610253 C -0.44719128788636775 1.3724058731078284 -0.29136388105718836 1.6453874537442816 -0.29136388105718836 2.0642894439617807 C -0.29139486723192776 2.085979744153777 -0.30898703987559095 2.103546785122237 -0.3306773622005723 2.103546762989244 Z M -1.6976632636718485 2.024919800702482 L -0.37047383754085716 2.024919800702482 C -0.3797181218211447 1.653946560210356 -0.5184947102572779 1.4107982955501361 -0.6355590246790823 1.2707299784478616 C -0.7672254892398573 1.1131840108715587 -0.9009587196664568 1.0476765188635033 -0.9022841456021473 1.0470475031652078 C -0.9159424758348607 1.0405155941728985 -0.9246363190529061 1.0267210021212736 -0.9246363190529061 1.011581126962287 C -0.9246363190529061 0.996441251803299 -0.9159424758348607 0.9826466597516741 -0.9022841456021473 0.9761147507593648 C -0.9010148817823747 0.975508199907438 -0.7673041162021439 0.9100007078993827 -0.6356601164877378 0.7524322754767111 C -0.5186182669123005 0.6123414935280691 -0.37985291089934914 0.3691932288678492 -0.3705749293495111 -0.001914800702482719 L -1.697798052750053 -0.001914800702482719 C -1.6876888718846126 0.15568732898973933 -1.6170593949047332 0.743918098703373 -1.128684867295287 0.9757440807942979 C -1.1146984473691715 0.982026130318598 -1.105640348054431 0.9958663466847217 -1.1054811211036881 1.0111979720177893 C -1.1053218941529424 1.0265295973508537 -1.1140905949086022 1.0405549543628712 -1.127943527365153 1.0471261301274943 C -1.616823514017872 1.2786376043692729 -1.6874754558441203 1.8671941143552373 -1.6976407988254798 2.024919800702482 Z" fill="#382d5f" transform="matrix(1,0,0,1,0,0)" fill-rule="nonzero"></path></g><g clip-path="url(#SvgjsClipPath1007a015b66d-a5ff-452f-b226-47d03b3930c4)"><path d=" M -0.094313481143381 -0.001914800702482719 L -1.9754410890077927 -0.001914800702482719 C -1.9971533251060434 -0.001914800702482719 -2.0147545701511738 -0.01951604574761441 -2.0147545701511738 -0.04122828184586368 C -2.0147545701511738 -0.06294051794411434 -1.9971533251060434 -0.08054176298924465 -1.9754410890077927 -0.08054176298924465 L -0.094313481143381 -0.08054176298924465 C -0.07260124504513166 -0.08054176298924465 -0.05500000000000016 -0.06294051794411434 -0.05500000000000016 -0.04122828184586368 C -0.05500000000000016 -0.01951604574761441 -0.07260124504513166 -0.001914800702482719 -0.094313481143381 -0.001914800702482719 Z" fill="#382d5f" transform="matrix(1,0,0,1,0,0)" fill-rule="nonzero"></path></g><g clip-path="url(#SvgjsClipPath1007a015b66d-a5ff-452f-b226-47d03b3930c4)"><path d=" M -0.094313481143381 2.103546762989244 L -1.962265456613167 2.103546762989244 C -1.9839776927114177 2.103546762989244 -2.001578937756548 2.085945517944114 -2.001578937756548 2.064233281845863 C -2.001578937756548 2.0425210457476135 -1.9839776927114177 2.024919800702482 -1.962265456613167 2.024919800702482 L -0.094313481143381 2.024919800702482 C -0.07260124504513166 2.024919800702482 -0.05500000000000016 2.0425210457476135 -0.05500000000000016 2.064233281845863 C -0.05500000000000016 2.085945517944114 -0.07260124504513166 2.103546762989244 -0.094313481143381 2.103546762989244 Z" fill="#382d5f" transform="matrix(1,0,0,1,0,0)" fill-rule="nonzero"></path></g><g clip-path="url(#SvgjsClipPath1007a015b66d-a5ff-452f-b226-47d03b3930c4)"><path d=" M -1.829902581814997 2.103546762989244 C -1.8516148179132463 2.103546762989244 -1.869216062958378 2.085945517944114 -1.869216062958378 2.064233281845863 L -1.869216062958378 -0.04122828184586368 C -1.869216062958378 -0.06294051794411434 -1.8516148179132463 -0.08054176298924465 -1.829902581814997 -0.08054176298924465 C -1.8081903457167479 -0.08054176298924465 -1.7905891006716161 -0.06294051794411434 -1.7905891006716161 -0.04122828184586368 L -1.7905891006716161 2.064233281845863 C -1.7905891006716161 2.085945517944114 -1.8081903457167479 2.103546762989244 -1.829902581814997 2.103546762989244 Z" fill="#382d5f" transform="matrix(1,0,0,1,0,0)" fill-rule="nonzero"></path></g><g clip-path="url(#SvgjsClipPath1007a015b66d-a5ff-452f-b226-47d03b3930c4)"><path d=" M -0.4557728591988095 1.5939766528319241 C -0.4557728591988095 1.5939766528319241 -0.36876650921691523 1.8219162165012468 -0.3765281136369376 2.0189216867223205 L -1.6929681107810088 2.0189216867223205 C -1.6809987261912596 1.8721871050823964 -1.649948956673406 1.727639345516182 -1.600603894940432 1.5889332948223862 C -1.4996993215166758 1.5498012962190733 -1.3871733403683901 1.553685701368548 -1.2892074270153033 1.5996827238093063 C -1.1252926754937733 1.6773886273949952 -1.0669739343233628 1.6082867599681154 -1.0475867719080847 1.5975710282507485 C -1.028199609492805 1.5868552965333815 -0.9073499684580524 1.5350064311168534 -0.760721916216426 1.606175064409556 C -0.6140938639747981 1.6773436977022604 -0.5014438918642357 1.6229226073766363 -0.4557728591988095 1.5939766528319241 Z" fill="#301a7f" transform="matrix(1,0,0,1,0,0)" fill-rule="nonzero"></path></g><g clip-path="url(#SvgjsClipPath1007a015b66d-a5ff-452f-b226-47d03b3930c4)"><path d=" M -1.1154980024774783 0.9763169343766742 L -0.9191552452242502 0.9763169343766742 C -0.9191552452242502 0.9763169343766742 -0.684015698294097 0.8760563250378676 -0.524526521506991 0.5742748113580921 L -1.5300979746155736 0.5742748113580921 C -1.4510329478246424 0.744389860477094 -1.2568243509763413 0.9213005256223077 -1.1154980024774783 0.9763169343766742 Z" fill="#301a7f" transform="matrix(1,0,0,1,0,0)" fill-rule="nonzero"></path></g><g clip-path="url(#SvgjsClipPath1007a015b66d-a5ff-452f-b226-47d03b3930c4)"><path d=" M -0.236482261381032 2.103546762989244 C -0.25819449747928114 2.103546762989244 -0.27579574252441286 2.085945517944114 -0.27579574252441286 2.064233281845863 L -0.27579574252441286 -0.04122828184586368 C -0.27579574252441286 -0.06294051794411434 -0.25819449747928114 -0.08054176298924465 -0.236482261381032 -0.08054176298924465 C -0.214770025282784 -0.08054176298924465 -0.19716878023765094 -0.06294051794411434 -0.19716878023765094 -0.04122828184586368 L -0.19716878023765094 2.064233281845863 C -0.19716878023765094 2.085945517944114 -0.214770025282784 2.103546762989244 -0.236482261381032 2.103546762989244 Z" fill="#382d5f" transform="matrix(1,0,0,1,0,0)" fill-rule="nonzero"></path></g><g clip-path="url(#SvgjsClipPath1007a015b66d-a5ff-452f-b226-47d03b3930c4)"><path d=" M -1.1234842553611761 0.9730258343838132 C -1.1234842553611761 0.9730258343838132 -1.0648285414952532 0.9966700851857617 -1.1316951567085507 1.050113954694392 C -1.1985617719218498 1.103557824203024 -1.2057168254899469 1.2494445365145177 -1.1281007812897277 1.3595335161391686 C -1.0504847370895085 1.4696224957638195 -1.0792172755937297 1.5163493762085234 -1.0892590619200677 1.6415347325922314 C -1.0921120974087581 1.677242605893605 -1.0183600067837753 1.7156687256054646 -0.9468880980651102 1.6242031036195934 C -0.8648914088232007 1.5192024116972151 -0.9547507942937867 1.423592025556512 -0.9698808683223958 1.3567703400359477 C -0.9850109423510052 1.2899486545153849 -0.9947157559818292 1.205918896677204 -0.9495164850901254 1.1214623067580383 C -0.9371095673945176 1.0958483678786748 -0.9276874001336659 1.068893431778831 -0.9214354271305671 1.041128016147333 C -0.9342555056582835 1.0189679155932754 -0.9304274366266494 0.9909370188072852 -0.9121349807343617 0.9730258343838158" fill="#301a7f" transform="matrix(1,0,0,1,0,0)" fill-rule="nonzero"></path></g></g></g><defs><clipPath id="SvgjsClipPath1008"><path d=" M -2.0147545701511738 -0.08054176298924465 h 1.9597545701511736 v 2.184088525978489 h -1.9597545701511736 Z"></path></clipPath><clipPath id="SvgjsClipPath1007a015b66d-a5ff-452f-b226-47d03b3930c4"><path d=" M -2.0147545701511738 -0.08054176298924465 L -0.05500000000000016 -0.08054176298924465 L -0.05500000000000016 2.103546762989244 L -2.0147545701511738 2.103546762989244 Z"></path></clipPath></defs></svg>