<svg width="78" height="69" viewBox="0 0 78 69" fill="none" xmlns="http://www.w3.org/2000/svg">
<path d="M11.4231 31L13.2115 31.0631H34.9615L35.0192 31.1262L35.0769 31.6312L35.1346 33.7143V55.3023L35.0769 58.2691L34.5 58.3322L20.1923 58.3953V65.7176H55.6154L55.6731 58.3322H43.0962L42.9808 58.206V53.9767L43.0385 50.505L43.0962 49.5581L43.1538 49.495L70.6731 49.5581L71.4808 49.6844L72.5769 50L73.3846 50.3156L74.3654 50.8837L75.0577 51.4518L75.8077 52.2093L76.4423 53.0299L76.9038 53.8505L77.3654 54.8605L77.7692 56.0598L78 57.1329V58.1429L77.8269 58.2691L77.4231 58.3322L58.6154 58.3953L58.5577 58.4585L58.5 67.9269L58.4423 69H17.3654L17.1923 68.9369V62.0565L17.25 58.3322H1.38462L0.0576923 58.2691L0 58.206L0.0576923 57.4485L0.346154 56.1229L0.75 54.8605L1.26923 53.6611L1.73077 52.9668L2.25 52.2724L2.88462 51.5781L3.92308 50.7575L4.84615 50.2525L5.94231 49.8738L6.98077 49.6213L7.55769 49.5581L24.1731 49.495L25.2692 49.4319L25.3269 39.7741H18.75L17.5385 39.5847L16.5 39.2691L15.6923 38.8904L14.7692 38.2591L14.1923 37.7542L13.6154 37.186L12.9808 36.3654L12.4038 35.3555L11.9423 34.2193L11.5385 32.6412L11.3654 31.4419V31.0631L11.4231 31Z" fill="white"/>
<path d="M17.7442 0H55.4669L59.7764 0.066778L59.8354 0.133556L59.8945 2.27045V10.9516L59.9535 11.2187H62.8462L73 11.2855L72.941 11.9533L72.5277 14.0234L72.1735 15.1586L71.7013 16.1603L71.1109 17.0952L70.5796 17.7629L69.9893 18.4307L69.1628 19.0985L68.2182 19.6995L67.3918 20.1002L66.4472 20.4341L65.4436 20.5676L54.2862 20.6344L53.9911 20.7012V29.9833L54.0501 30.8514L54.2272 30.7846L68.3363 30.8514L68.2773 31.7195L67.9231 33.389L67.3327 34.9917L66.8605 35.9933L66.2111 36.9282L65.6798 37.596L65.0304 38.197L63.9678 38.9983L63.0233 39.4658L62.0197 39.7997L61.2522 39.9332L60.5438 40H44.0143L43.9553 39.9332V14.9583L44.0143 11.2855L44.0733 11.2187H56.9428V3.3389L20.7549 3.40568L20.6369 3.47245V11.2855L21.2272 11.2187H35.8676L35.9267 11.8197V18.2972L35.8676 20.5008L35.8086 20.5676H14.3792L13.2576 20.3673L12.0769 19.8998L10.8962 19.2321L10.3059 18.7646L9.65653 18.1636L8.88909 17.2955L8.18068 16.1603L7.59034 14.8915L7.29517 13.823L7.11807 12.621L7 11.2187H17.6261L17.5671 8.74791V3.60601L17.6261 0.33389L17.7442 0Z" fill="white"/>
<path d="M13 33L13.2311 33.2192L13.5778 33.7123L14.04 34.2603L14.0978 34.4247H14.2133L14.6178 34.863L15.0222 35.1918L15.8311 35.6849V35.7945L16.9867 36.2329L18.2578 36.5616H23.6889L24.9022 36.6164L25.7111 36.726L26 36.8356L25.9422 37L19.3556 36.9452L18.1422 36.7808L17.1022 36.5068L16.2933 36.1781L15.3689 35.6301L14.7911 35.1918L14.2133 34.6986L13.5778 33.9863L13 33.1096V33Z" fill="white"/>
<path d="M70.9213 15L71 15.0727L70.4494 15.4L69.3483 15.9091L68.2472 16.2727L66.9888 16.6L65.8876 16.8182L64.6292 17H64L64.3146 16.8909L65.4157 16.7818L65.9663 16.6364L66.7528 16.3818L67.5393 16.2364L68.7191 15.8727H68.8764V15.8L69.5056 15.5818L69.7416 15.5455V15.4727L70.6854 15.1455L70.9213 15Z" fill="white"/>
<path d="M13 33L13.1509 33.1455L13.3774 33.4727L13.6792 33.8364L13.717 33.9455H13.7925L14.0566 34.2364L14.3208 34.4545L14.8491 34.7818V34.8545L15 34.9273L14.9623 35L14.3962 34.6364L13.9057 34.2364L13.5283 33.8364L13.1509 33.3273L13 33.0727V33Z" fill="white"/>
<path d="M17 64H17.0625L17.125 66.7606L17.1875 67.7183L17.3125 67.7746V67.8873H18V68H17.1875L17 67.9437V64Z" fill="white"/>
<path d="M14 34H14.2L14.6667 34.5333L15 34.8667L14.9333 35L14.1333 34.2667L14 34Z" fill="white"/>
<path d="M8 14L8.26667 14.2381L8.6 14.5238V14.619H8.73333L9 14.9048L8.93333 15L8.33333 14.4762L8 14.1429V14Z" fill="white"/>
<path d="M65.7778 33L66 33.1667L64.2222 34L64 33.6667L64.6667 33.4167H65.1111L65.5556 33.0833L65.7778 33Z" fill="white"/>
<path d="M11.4231 31L13.2115 31.0631H34.9615L35.0192 31.1262L35.0769 31.6312L35.1346 33.7143V55.3023L35.0769 58.2691L34.5 58.3322L20.1923 58.3953V65.7176H55.6154L55.6731 58.3322H43.0962L42.9808 58.206V53.9767L43.0385 50.505L43.0962 49.5581L43.1538 49.495L70.6731 49.5581L71.4808 49.6844L72.5769 50L73.3846 50.3156L74.3654 50.8837L75.0577 51.4518L75.8077 52.2093L76.4423 53.0299L76.9038 53.8505L77.3654 54.8605L77.7692 56.0598L78 57.1329V58.1429L77.8269 58.2691L77.4231 58.3322L58.6154 58.3953L58.5577 58.4585L58.5 67.9269L58.4423 69H17.3654L17.1923 68.9369V62.0565L17.25 58.3322H1.38462L0.0576923 58.2691L0 58.206L0.0576923 57.4485L0.346154 56.1229L0.75 54.8605L1.26923 53.6611L1.73077 52.9668L2.25 52.2724L2.88462 51.5781L3.92308 50.7575L4.84615 50.2525L5.94231 49.8738L6.98077 49.6213L7.55769 49.5581L24.1731 49.495L25.2692 49.4319L25.3269 39.7741H18.75L17.5385 39.5847L16.5 39.2691L15.6923 38.8904L14.7692 38.2591L14.1923 37.7542L13.6154 37.186L12.9808 36.3654L12.4038 35.3555L11.9423 34.2193L11.5385 32.6412L11.3654 31.4419V31.0631L11.4231 31Z" fill="white"/>
<path d="M17.7442 0H55.4669L59.7764 0.066778L59.8354 0.133556L59.8945 2.27045V10.9516L59.9535 11.2187H62.8462L73 11.2855L72.941 11.9533L72.5277 14.0234L72.1735 15.1586L71.7013 16.1603L71.1109 17.0952L70.5796 17.7629L69.9893 18.4307L69.1628 19.0985L68.2182 19.6995L67.3918 20.1002L66.4472 20.4341L65.4436 20.5676L54.2862 20.6344L53.9911 20.7012V29.9833L54.0501 30.8514L54.2272 30.7846L68.3363 30.8514L68.2773 31.7195L67.9231 33.389L67.3327 34.9917L66.8605 35.9933L66.2111 36.9282L65.6798 37.596L65.0304 38.197L63.9678 38.9983L63.0233 39.4658L62.0197 39.7997L61.2522 39.9332L60.5438 40H44.0143L43.9553 39.9332V14.9583L44.0143 11.2855L44.0733 11.2187H56.9428V3.3389L20.7549 3.40568L20.6369 3.47245V11.2855L21.2272 11.2187H35.8676L35.9267 11.8197V18.2972L35.8676 20.5008L35.8086 20.5676H14.3792L13.2576 20.3673L12.0769 19.8998L10.8962 19.2321L10.3059 18.7646L9.65653 18.1636L8.88909 17.2955L8.18068 16.1603L7.59034 14.8915L7.29517 13.823L7.11807 12.621L7 11.2187H17.6261L17.5671 8.74791V3.60601L17.6261 0.33389L17.7442 0Z" fill="white"/>
<path d="M13 33L13.2311 33.2192L13.5778 33.7123L14.04 34.2603L14.0978 34.4247H14.2133L14.6178 34.863L15.0222 35.1918L15.8311 35.6849V35.7945L16.9867 36.2329L18.2578 36.5616H23.6889L24.9022 36.6164L25.7111 36.726L26 36.8356L25.9422 37L19.3556 36.9452L18.1422 36.7808L17.1022 36.5068L16.2933 36.1781L15.3689 35.6301L14.7911 35.1918L14.2133 34.6986L13.5778 33.9863L13 33.1096V33Z" fill="white"/>
<path d="M70.9213 15L71 15.0727L70.4494 15.4L69.3483 15.9091L68.2472 16.2727L66.9888 16.6L65.8876 16.8182L64.6292 17H64L64.3146 16.8909L65.4157 16.7818L65.9663 16.6364L66.7528 16.3818L67.5393 16.2364L68.7191 15.8727H68.8764V15.8L69.5056 15.5818L69.7416 15.5455V15.4727L70.6854 15.1455L70.9213 15Z" fill="white"/>
<path d="M13 33L13.1509 33.1455L13.3774 33.4727L13.6792 33.8364L13.717 33.9455H13.7925L14.0566 34.2364L14.3208 34.4545L14.8491 34.7818V34.8545L15 34.9273L14.9623 35L14.3962 34.6364L13.9057 34.2364L13.5283 33.8364L13.1509 33.3273L13 33.0727V33Z" fill="white"/>
<path d="M17 64H17.0625L17.125 66.7606L17.1875 67.7183L17.3125 67.7746V67.8873H18V68H17.1875L17 67.9437V64Z" fill="white"/>
<path d="M14 34H14.2L14.6667 34.5333L15 34.8667L14.9333 35L14.1333 34.2667L14 34Z" fill="white"/>
<path d="M8 14L8.26667 14.2381L8.6 14.5238V14.619H8.73333L9 14.9048L8.93333 15L8.33333 14.4762L8 14.1429V14Z" fill="white"/>
<path d="M65.7778 33L66 33.1667L64.2222 34L64 33.6667L64.6667 33.4167H65.1111L65.5556 33.0833L65.7778 33Z" fill="white"/>
</svg>
