<svg width="78" height="69" viewBox="0 0 78 69" fill="none" xmlns="http://www.w3.org/2000/svg">
<path d="M11.3283 30.9869L13.1019 31.0499H34.6713L34.7285 31.1128L34.7857 31.6161L34.843 33.6922V55.208L34.7857 58.1649L34.2136 58.2278L20.0247 58.2907V65.5885H55.1537L55.2109 58.2278H42.7384L42.624 58.102V53.8869L42.6812 50.4267L42.7384 49.483L42.7956 49.4201L70.0864 49.483L70.8874 49.6089L71.9744 49.9234L72.7754 50.238L73.7481 50.8042L74.4346 51.3704L75.1784 52.1253L75.8077 52.9432L76.2655 53.761L76.7232 54.7676L77.1237 55.963L77.3525 57.0325V58.0391L77.1809 58.1649L76.7804 58.2278L58.1288 58.2907L58.0716 58.3536L58.0144 67.7904L57.9572 68.8599H17.2212L17.0496 68.797V61.9396L17.1068 58.2278H1.37312L0.0572134 58.1649L0 58.102L0.0572134 57.347L0.34328 56.0259L0.743774 54.7676L1.25869 53.5723L1.7164 52.8803L2.23132 52.1882L2.86067 51.4962L3.89051 50.6784L4.80593 50.1751L5.89298 49.7976L6.92282 49.5459L7.49496 49.483L23.9724 49.4201L25.0595 49.3572L25.1167 39.7317H18.5944L17.3929 39.543L16.363 39.2284L15.562 38.8509L14.6466 38.2218L14.0745 37.7185L13.5024 37.1523L12.873 36.3344L12.3009 35.3279L11.8432 34.1954L11.4427 32.6226L11.271 31.4273V31.0499L11.3283 30.9869Z" fill="white"/>
<path d="M17.1147 0H54.5716L58.8507 0.0661009L58.9093 0.132202L58.9679 2.24743V10.8406L59.0265 11.105H61.8988L71.9811 11.1711L71.9224 11.8321L71.5121 13.8812L71.1604 15.0049L70.6915 15.9964L70.1053 16.9218L69.5777 17.5828L68.9916 18.2439L68.1709 18.9049L67.233 19.4998L66.4124 19.8964L65.4745 20.2269L64.478 20.3591L53.3992 20.4252L53.1061 20.4913V29.6793L53.1647 30.5386L53.3406 30.4725L67.3503 30.5386L67.2916 31.3979L66.9399 33.0505L66.3537 34.6369L65.8848 35.6284L65.24 36.5538L64.7124 37.2148L64.0677 37.8097L63.0125 38.6029L62.0746 39.0657L61.0781 39.3962L60.3161 39.5284L59.6127 39.5945H43.1997L43.1411 39.5284V14.8066L43.1997 11.1711L43.2583 11.105H56.037V3.30505L20.1043 3.37115L19.987 3.43725V11.1711L20.5732 11.105H35.1104L35.169 11.6999V18.1117L35.1104 20.293L35.0518 20.3591H13.7735L12.6598 20.1608L11.4874 19.6981L10.3151 19.0371L9.72889 18.5744L9.08409 17.9795L8.32206 17.1201L7.61865 15.9964L7.03247 14.7405L6.73938 13.6829L6.56352 12.4931L6.44629 11.105H16.9975L16.9389 8.65922V3.56945L16.9975 0.330505L17.1147 0Z" fill="white"/>
<path d="M12.8921 32.7085L13.1213 32.9443L13.4651 33.4749L13.9235 34.0645L13.9808 34.2413H14.0954L14.4964 34.713L14.8975 35.0667L15.6997 35.5973V35.7152L16.8457 36.1869L18.1062 36.5406H23.4922L24.6955 36.5996L25.4977 36.7175L25.7842 36.8354L25.7269 37.0122L19.1949 36.9533L17.9916 36.7764L16.9603 36.4816L16.1581 36.1279L15.2413 35.5384L14.6683 35.0667L14.0954 34.5361L13.4651 33.7697L12.8921 32.8264V32.7085Z" fill="white"/>
<path d="M69.7718 14.6327L69.8322 14.7266L69.4097 15.1491L68.5647 15.8064L67.7197 16.2759L66.754 16.6985L65.909 16.9802L64.9433 17.2149H64.4604L64.7019 17.0741L65.5469 16.9332L65.9694 16.7454L66.5729 16.4168L67.1765 16.229L68.0818 15.7595H68.2025V15.6656L68.6854 15.3839L68.8665 15.3369V15.243L69.5907 14.8205L69.7718 14.6327Z" fill="white"/>
<path d="M12.8921 32.7085L13.0543 32.8963L13.2975 33.3188L13.6218 33.7883L13.6624 33.9292H13.7435L14.0272 34.3048L14.311 34.5865L14.8786 35.009V35.1029L15.0408 35.1968L15.0002 35.2907L14.3921 34.8212L13.8651 34.3048L13.4597 33.7883L13.0543 33.131L12.8921 32.8024V32.7085Z" fill="white"/>
<path d="M17.1895 63.6954H17.2566L17.3237 66.6656L17.3909 67.6961L17.5252 67.7567V67.8779H18.2638V67.9992H17.3909L17.1895 67.9386V63.6954Z" fill="white"/>
<path d="M13.9668 34.4299H14.1817L14.683 34.889L15.0411 35.1759L14.9695 35.2907L14.11 34.6595L13.9668 34.4299Z" fill="white"/>
<path d="M7.52051 13.772L7.807 13.9769L8.16511 14.2228V14.3048H8.30836L8.59485 14.5507L8.52323 14.6327L7.87862 14.1819L7.52051 13.8949V13.772Z" fill="white"/>
<path d="M65.4154 32.7085L65.5348 32.9954L64.5798 34.43L64.4604 33.8562L64.8186 33.4258H65.0573L65.296 32.852L65.4154 32.7085Z" fill="white"/>
<path d="M11.3283 30.9869L13.1019 31.0499H34.6713L34.7285 31.1128L34.7857 31.6161L34.843 33.6922V55.208L34.7857 58.1649L34.2136 58.2278L20.0247 58.2907V65.5885H55.1537L55.2109 58.2278H42.7384L42.624 58.102V53.8869L42.6812 50.4267L42.7384 49.483L42.7956 49.4201L70.0864 49.483L70.8874 49.6089L71.9744 49.9234L72.7754 50.238L73.7481 50.8042L74.4346 51.3704L75.1784 52.1253L75.8077 52.9432L76.2655 53.761L76.7232 54.7676L77.1237 55.963L77.3525 57.0325V58.0391L77.1809 58.1649L76.7804 58.2278L58.1288 58.2907L58.0716 58.3536L58.0144 67.7904L57.9572 68.8599H17.2212L17.0496 68.797V61.9396L17.1068 58.2278H1.37312L0.0572134 58.1649L0 58.102L0.0572134 57.347L0.34328 56.0259L0.743774 54.7676L1.25869 53.5723L1.7164 52.8803L2.23132 52.1882L2.86067 51.4962L3.89051 50.6784L4.80593 50.1751L5.89298 49.7976L6.92282 49.5459L7.49496 49.483L23.9724 49.4201L25.0595 49.3572L25.1167 39.7317H18.5944L17.3929 39.543L16.363 39.2284L15.562 38.8509L14.6466 38.2218L14.0745 37.7185L13.5024 37.1523L12.873 36.3344L12.3009 35.3279L11.8432 34.1954L11.4427 32.6226L11.271 31.4273V31.0499L11.3283 30.9869Z" fill="white"/>
<path d="M17.1147 0H54.5716L58.8507 0.0661009L58.9093 0.132202L58.9679 2.24743V10.8406L59.0265 11.105H61.8988L71.9811 11.1711L71.9224 11.8321L71.5121 13.8812L71.1604 15.0049L70.6915 15.9964L70.1053 16.9218L69.5777 17.5828L68.9916 18.2439L68.1709 18.9049L67.233 19.4998L66.4124 19.8964L65.4745 20.2269L64.478 20.3591L53.3992 20.4252L53.1061 20.4913V29.6793L53.1647 30.5386L53.3406 30.4725L67.3503 30.5386L67.2916 31.3979L66.9399 33.0505L66.3537 34.6369L65.8848 35.6284L65.24 36.5538L64.7124 37.2148L64.0677 37.8097L63.0125 38.6029L62.0746 39.0657L61.0781 39.3962L60.3161 39.5284L59.6127 39.5945H43.1997L43.1411 39.5284V14.8066L43.1997 11.1711L43.2583 11.105H56.037V3.30505L20.1043 3.37115L19.987 3.43725V11.1711L20.5732 11.105H35.1104L35.169 11.6999V18.1117L35.1104 20.293L35.0518 20.3591H13.7735L12.6598 20.1608L11.4874 19.6981L10.3151 19.0371L9.72889 18.5744L9.08409 17.9795L8.32206 17.1201L7.61865 15.9964L7.03247 14.7405L6.73938 13.6829L6.56352 12.4931L6.44629 11.105H16.9975L16.9389 8.65922V3.56945L16.9975 0.330505L17.1147 0Z" fill="white"/>
<path d="M12.8921 32.7085L13.1213 32.9443L13.4651 33.4749L13.9235 34.0645L13.9808 34.2413H14.0954L14.4964 34.713L14.8975 35.0667L15.6997 35.5973V35.7152L16.8457 36.1869L18.1062 36.5406H23.4922L24.6955 36.5996L25.4977 36.7175L25.7842 36.8354L25.7269 37.0122L19.1949 36.9533L17.9916 36.7764L16.9603 36.4816L16.1581 36.1279L15.2413 35.5384L14.6683 35.0667L14.0954 34.5361L13.4651 33.7697L12.8921 32.8264V32.7085Z" fill="white"/>
<path d="M69.7718 14.6327L69.8322 14.7266L69.4097 15.1491L68.5647 15.8064L67.7197 16.2759L66.754 16.6985L65.909 16.9802L64.9433 17.2149H64.4604L64.7019 17.0741L65.5469 16.9332L65.9694 16.7454L66.5729 16.4168L67.1765 16.229L68.0818 15.7595H68.2025V15.6656L68.6854 15.3839L68.8665 15.3369V15.243L69.5907 14.8205L69.7718 14.6327Z" fill="white"/>
<path d="M12.8921 32.7085L13.0543 32.8963L13.2975 33.3188L13.6218 33.7883L13.6624 33.9292H13.7435L14.0272 34.3048L14.311 34.5865L14.8786 35.009V35.1029L15.0408 35.1968L15.0002 35.2907L14.3921 34.8212L13.8651 34.3048L13.4597 33.7883L13.0543 33.131L12.8921 32.8024V32.7085Z" fill="white"/>
<path d="M17.1895 63.6954H17.2566L17.3237 66.6656L17.3909 67.6961L17.5252 67.7567V67.8779H18.2638V67.9992H17.3909L17.1895 67.9386V63.6954Z" fill="white"/>
<path d="M13.9668 34.4299H14.1817L14.683 34.889L15.0411 35.1759L14.9695 35.2907L14.11 34.6595L13.9668 34.4299Z" fill="white"/>
<path d="M7.52051 13.772L7.807 13.9769L8.16511 14.2228V14.3048H8.30836L8.59485 14.5507L8.52323 14.6327L7.87862 14.1819L7.52051 13.8949V13.772Z" fill="white"/>
<path d="M65.4154 32.7085L65.5348 32.9954L64.5798 34.43L64.4604 33.8562L64.8186 33.4258H65.0573L65.296 32.852L65.4154 32.7085Z" fill="white"/>
</svg>
