<svg width="78" height="39" viewBox="0 0 78 39" fill="none" xmlns="http://www.w3.org/2000/svg">
<path d="M11.3283 0.986816L13.1019 1.04973H34.6713L34.7285 1.11264L34.7857 1.61594L34.843 3.69203V25.2079L34.7857 28.1648L34.2136 28.2277L20.0247 28.2906V35.5884H55.1537L55.2109 28.2277H42.7384L42.624 28.1018V23.8867L42.6812 20.4266L42.7384 19.4829L42.7956 19.42L70.0864 19.4829L70.8874 19.6087L71.9744 19.9233L72.7754 20.2379L73.7481 20.8041L74.4346 21.3703L75.1784 22.1252L75.8077 22.9431L76.2655 23.7609L76.7232 24.7675L77.1237 25.9628L77.3525 27.0323V28.0389L77.1809 28.1648L76.7804 28.2277L58.1288 28.2906L58.0716 28.3535L58.0144 37.7903L57.9572 38.8598H17.2212L17.0496 38.7969V31.9395L17.1068 28.2277H1.37312L0.0572134 28.1648L0 28.1018L0.0572134 27.3469L0.34328 26.0258L0.743774 24.7675L1.25869 23.5722L1.7164 22.8802L2.23132 22.1881L2.86067 21.4961L3.89051 20.6782L4.80593 20.1749L5.89298 19.7975L6.92282 19.5458L7.49496 19.4829L23.9724 19.42L25.0595 19.3571L25.1167 9.73157H18.5944L17.3929 9.54284L16.363 9.22828L15.562 8.8508L14.6466 8.22169L14.0745 7.71839L13.5024 7.15218L12.873 6.33433L12.3009 5.32774L11.8432 4.19532L11.4427 2.62253L11.271 1.4272V1.04973L11.3283 0.986816Z" fill="white"/>
</svg>
