<svg width="66" height="40" viewBox="0 0 66 40" fill="none" xmlns="http://www.w3.org/2000/svg">
<path d="M11.1147 0H48.5716L52.8507 0.0661009L52.9093 0.132202L52.9679 2.24743V10.8406L53.0265 11.105H55.8988L65.9811 11.1711L65.9224 11.8321L65.5121 13.8812L65.1604 15.0049L64.6915 15.9964L64.1053 16.9218L63.5777 17.5828L62.9916 18.2439L62.1709 18.9049L61.233 19.4998L60.4124 19.8964L59.4745 20.2269L58.478 20.3591L47.3992 20.4252L47.1061 20.4913V29.6793L47.1647 30.5386L47.3406 30.4725L61.3503 30.5386L61.2916 31.3979L60.9399 33.0505L60.3537 34.6369L59.8848 35.6284L59.24 36.5538L58.7124 37.2148L58.0677 37.8097L57.0125 38.6029L56.0746 39.0657L55.0781 39.3962L54.3161 39.5284L53.6127 39.5945H37.1997L37.1411 39.5284V14.8066L37.1997 11.1711L37.2583 11.105H50.037V3.30505L14.1043 3.37115L13.987 3.43725V11.1711L14.5732 11.105H29.1104L29.169 11.6999V18.1117L29.1104 20.293L29.0518 20.3591H7.77352L6.65978 20.1608L5.48743 19.6981L4.31507 19.0371L3.72889 18.5744L3.08409 17.9795L2.32206 17.1201L1.61865 15.9964L1.03247 14.7405L0.739378 13.6829L0.563525 12.4931L0.446289 11.105H10.9975L10.9389 8.65922V3.56945L10.9975 0.330505L11.1147 0Z" fill="white"/>
</svg>
